<svg width="148" height="21" viewBox="0 0 148 21" fill="none" xmlns="http://www.w3.org/2000/svg">
<g id="TORNADO-logo">
<g id="Logo">
<path id="Vector" d="M146.52 6.14698C146.07 4.9211 145.412 3.85283 144.564 2.94218C143.733 2.03152 142.677 1.31351 141.466 0.788132C140.254 0.280267 138.852 0.0175781 137.311 0.0175781C135.788 0.0175781 134.386 0.280267 133.175 0.788132C131.946 1.31351 130.89 2.03152 130.059 2.94218C129.211 3.85283 128.57 4.9211 128.12 6.14698C127.67 7.35535 127.445 8.6863 127.445 10.1048C127.445 11.4883 127.67 12.7842 128.12 13.9926C128.57 15.1835 129.228 16.2517 130.076 17.1449C130.924 18.038 131.963 18.7385 133.192 19.2464C134.421 19.7543 135.806 19.9994 137.329 19.9994C138.869 19.9994 140.271 19.7367 141.483 19.2289C142.712 18.721 143.75 18.003 144.581 17.1274C145.429 16.2342 146.087 15.166 146.537 13.9751C146.987 12.7667 147.212 11.4708 147.212 10.0873C147.195 8.68631 146.97 7.35535 146.52 6.14698ZM141.864 12.1888C141.691 12.8543 141.414 13.4672 141.033 13.9926C140.652 14.518 140.167 14.9383 139.562 15.2535C138.956 15.5687 138.211 15.7264 137.329 15.7264C136.463 15.7264 135.702 15.5687 135.096 15.2535C134.49 14.9383 133.988 14.518 133.625 13.9926C133.244 13.4672 132.967 12.8543 132.794 12.1888C132.621 11.5058 132.534 10.8053 132.534 10.0873C132.534 9.33427 132.621 8.59874 132.811 7.89824C132.984 7.21525 133.261 6.5848 133.642 6.04191C134.023 5.51653 134.507 5.07871 135.113 4.76349C135.702 4.44826 136.463 4.29065 137.346 4.29065C138.229 4.29065 138.973 4.44826 139.579 4.76349C140.185 5.07871 140.669 5.49902 141.05 6.04191C141.431 6.5848 141.708 7.19774 141.881 7.89824C142.054 8.59874 142.158 9.33427 142.158 10.0873C142.141 10.8053 142.037 11.5058 141.864 12.1888Z" fill="#E1261C"/>
<path id="Vector_2" d="M0.50196 0H0V4.29058H6.14468V19.9993H11.3027V4.29058H16.9455H17.4474V0H0.50196Z" fill="#E1261C"/>
<path id="Vector_3" d="M75.0843 12.1012L67.3299 0H62.1719V19.9993H67.3299V7.79309L75.0843 19.9993H80.2251V0H75.0843V12.1012Z" fill="#E1261C"/>
<path id="Vector_4" d="M92.2208 0H90.7322H83.1855L84.8471 4.29058H88.8628L82.8047 19.9993H87.9454L89.434 16.1641H97.0326L98.5212 19.9993H103.679L95.9422 0H92.2208ZM91.0957 11.8735L93.2247 6.30452L95.371 11.8735H91.0957Z" fill="#E1261C"/>
<path id="Vector_5" d="M122.237 2.9246C121.406 2.01395 120.368 1.27842 119.139 0.770553C117.927 0.262689 116.542 0 114.985 0V0.0525377V0H98.9219L100.584 4.29058H115.002C115.019 4.29058 115.019 4.29058 115.036 4.29058C115.919 4.29058 116.664 4.44819 117.269 4.76342C117.875 5.07864 118.36 5.49895 118.741 6.04184C119.121 6.58473 119.398 7.18015 119.571 7.88066C119.745 8.58116 119.848 9.28166 119.848 10.1223C119.848 10.8403 119.745 11.5408 119.571 12.2238C119.398 12.8892 119.121 13.4497 118.758 13.9925C118.377 14.5179 117.892 14.9382 117.287 15.2534C116.681 15.5687 115.937 15.7263 115.054 15.7263H115.019H111.436V6.21696H106.278V19.9818H114.863H115.019C116.56 19.9818 117.996 19.6666 119.208 19.1587C120.437 18.6509 121.406 17.9854 122.254 17.0923C123.102 16.1991 123.76 15.1484 124.21 13.94C124.66 12.7316 124.885 11.4357 124.885 10.0522C124.885 8.65121 124.66 7.32025 124.21 6.09437C123.726 4.88601 123.068 3.81774 122.237 2.9246Z" fill="#E1261C"/>
<path id="Vector_6" d="M35.8998 2.94218C35.069 2.03152 34.0131 1.31351 32.8015 0.788132C31.5899 0.280267 30.1878 0.0175781 28.6474 0.0175781C27.1242 0.0175781 25.7221 0.280267 24.5105 0.788132C23.2816 1.31351 22.2257 2.03152 21.3949 2.94218C20.5468 3.85283 19.9063 4.9211 19.4563 6.14698C19.0063 7.35535 18.7812 8.6863 18.7812 10.1048C18.7812 11.4883 19.0063 12.7842 19.4563 13.9926C19.9063 15.1835 20.5641 16.2517 21.4122 17.1449C22.2603 18.038 23.2989 18.7385 24.5278 19.2464C25.7568 19.7543 27.1415 19.9994 28.6647 19.9994C30.2052 19.9994 31.6072 19.7367 32.8188 19.2289C34.0477 18.721 35.0863 18.003 35.9171 17.1274C36.7653 16.2342 37.423 15.166 37.873 13.9751C38.3231 12.7667 38.5481 11.4708 38.5481 10.0873C38.5481 8.68631 38.3231 7.35535 37.873 6.12947C37.3884 4.9211 36.7479 3.85283 35.8998 2.94218ZM33.1996 12.1888C33.0265 12.8543 32.7496 13.4672 32.3688 13.9926C31.988 14.518 31.5033 14.9383 30.8975 15.2535C30.2917 15.5687 29.5474 15.7264 28.6647 15.7264C27.7992 15.7264 27.0376 15.5687 26.4318 15.2535C25.826 14.9383 25.324 14.518 24.9605 13.9926C24.5797 13.4672 24.3028 12.8543 24.1297 12.1888C23.9566 11.5058 23.8701 10.8053 23.8701 10.0873C23.8701 9.33427 23.9566 8.59874 24.147 7.89824C24.3201 7.21525 24.5971 6.5848 24.9779 6.04191C25.3587 5.51653 25.8433 5.07871 26.4491 4.76349C27.0376 4.44826 27.7992 4.29065 28.682 4.29065C29.5647 4.29065 30.309 4.44826 30.9148 4.76349C31.5206 5.07871 32.0053 5.49902 32.3861 6.04191C32.7669 6.5848 33.0438 7.19774 33.2169 7.89824C33.39 8.59874 33.4939 9.33427 33.4939 10.0873C33.4592 10.8053 33.3727 11.5058 33.1996 12.1888Z" fill="#E1261C"/>
<path id="Vector_7" d="M55.3178 11.7509C54.9543 11.5058 54.6947 11.4357 54.6947 11.4357C57.0314 10.5951 58.6238 8.44106 58.6238 5.86671C58.6238 2.62688 56.0275 0 52.8253 0H52.3407H52.0291H41.0898V19.9993H46.2306V12.6966V12.3989H49.0866C49.9693 12.3989 50.7482 12.8367 51.2329 13.5022C51.2329 13.5022 51.7695 14.2027 52.2541 15.1834C52.7388 16.1641 54.3312 19.9993 54.3312 19.9993H59.6104C59.6104 19.9993 56.4948 13.222 56.0794 12.574C55.8544 12.2413 55.664 11.9961 55.3178 11.7509ZM51.7175 8.10832H46.2306V4.29058H51.7175C52.7041 4.29058 53.5696 5.14869 53.5696 6.19945C53.5696 7.2502 52.7734 8.10832 51.7175 8.10832Z" fill="#E1261C"/>
</g>
</g>
</svg>
